<svg width="24" height="24" viewBox="0 0 24 24" fill="none" xmlns="http://www.w3.org/2000/svg">
<path d="M13.5921 3.47482L15.3345 6.95962C15.5721 7.44472 16.2057 7.91002 16.7403 7.99912L19.8984 8.52382C21.918 8.86042 22.3932 10.3256 20.9379 11.771L18.4827 14.2262C18.0669 14.642 17.8392 15.4439 17.9679 16.0181L18.6708 19.0574C19.2252 21.4631 17.9481 22.3937 15.8196 21.1364L12.8595 19.3841C12.3249 19.0673 11.4438 19.0673 10.8993 19.3841L7.93921 21.1364C5.82061 22.3937 4.53361 21.4532 5.08801 19.0574L5.79091 16.0181C5.91961 15.4439 5.69191 14.642 5.27611 14.2262L2.82091 11.771C1.37551 10.3256 1.84081 8.86042 3.86041 8.52382L7.01851 7.99912C7.54321 7.91002 8.17681 7.44472 8.41441 6.95962L10.1568 3.47482C11.1072 1.58392 12.6516 1.58392 13.5921 3.47482Z" fill="black" fill-opacity="0.7"/>
</svg>
