<svg width="24" height="24" viewBox="0 0 24 24" fill="none" xmlns="http://www.w3.org/2000/svg">
<path d="M20.8599 5.1775C19.266 5.0191 17.6721 4.9003 16.0683 4.8112V4.8013L15.8505 3.5143C15.702 2.6035 15.4842 1.2373 13.1676 1.2373H10.5738C8.26715 1.2373 8.04935 2.5441 7.89095 3.5044L7.68305 4.7716C6.76235 4.831 5.84165 4.8904 4.92095 4.9795L2.90135 5.1775C2.48555 5.2171 2.18855 5.5834 2.22815 5.9893C2.26775 6.3952 2.62415 6.6922 3.03995 6.6526L5.05955 6.4546C10.2471 5.9398 15.4744 6.1378 20.7214 6.6625C20.7511 6.6625 20.7709 6.6625 20.8006 6.6625C21.1768 6.6625 21.5035 6.3754 21.5431 5.9893C21.5728 5.5834 21.2757 5.2171 20.8599 5.1775Z" fill="black" fill-opacity="0.7"/>
<path d="M19.0388 8.05798C18.8012 7.81048 18.4745 7.67188 18.1379 7.67188H5.62426C5.28766 7.67188 4.95106 7.81048 4.72336 8.05798C4.49566 8.30548 4.36696 8.64207 4.38676 8.98857L5.00056 19.146C5.10946 20.6508 5.24806 22.5318 8.70316 22.5318H15.059C18.5141 22.5318 18.6527 20.6607 18.7616 19.146L19.3754 8.99848C19.3952 8.64208 19.2665 8.30548 19.0388 8.05798ZM13.5245 17.5719H10.2278C9.82186 17.5719 9.48526 17.2353 9.48526 16.8294C9.48526 16.4235 9.82186 16.0869 10.2278 16.0869H13.5245C13.9304 16.0869 14.267 16.4235 14.267 16.8294C14.267 17.2353 13.9304 17.5719 13.5245 17.5719ZM14.3561 13.6119H9.40606C9.00016 13.6119 8.66356 13.2753 8.66356 12.8694C8.66356 12.4635 9.00016 12.1269 9.40606 12.1269H14.3561C14.762 12.1269 15.0986 12.4635 15.0986 12.8694C15.0986 13.2753 14.762 13.6119 14.3561 13.6119Z" fill="black" fill-opacity="0.7"/>
</svg>
