<svg width="24" height="24" viewBox="0 0 24 24" fill="none" xmlns="http://www.w3.org/2000/svg">
<path d="M20.6224 7.93039L14.1379 2.74279C12.8707 1.73299 10.8907 1.72309 9.63339 2.73289L3.14889 7.93039C2.21829 8.67289 1.65399 10.1579 1.85199 11.3261L3.09939 18.7907C3.38649 20.4638 4.94079 21.7805 6.63369 21.7805H17.1277C18.8008 21.7805 20.3848 20.4341 20.6719 18.7808L21.9193 11.3162C22.0975 10.1579 21.5332 8.67289 20.6224 7.93039ZM12.6232 17.8205C12.6232 18.2264 12.2866 18.563 11.8807 18.563C11.4748 18.563 11.1382 18.2264 11.1382 17.8205V14.8505C11.1382 14.4446 11.4748 14.108 11.8807 14.108C12.2866 14.108 12.6232 14.4446 12.6232 14.8505V17.8205Z" fill="white"/>
</svg>
