<svg width="24" height="24" viewBox="0 0 24 24" fill="none" xmlns="http://www.w3.org/2000/svg">
<path d="M16.5819 3.5242V1.9798C16.5819 1.5739 16.2453 1.2373 15.8394 1.2373C15.4335 1.2373 15.0969 1.5739 15.0969 1.9798V3.4648H8.66187V1.9798C8.66187 1.5739 8.32527 1.2373 7.91937 1.2373C7.51347 1.2373 7.17687 1.5739 7.17687 1.9798V3.5242C4.50387 3.7717 3.20697 5.3656 3.00897 7.7317C2.98917 8.0188 3.22677 8.2564 3.50397 8.2564H20.2548C20.5419 8.2564 20.7795 8.0089 20.7498 7.7317C20.5518 5.3656 19.2549 3.7717 16.5819 3.5242Z" fill="black" fill-opacity="0.7"/>
<path d="M19.8007 9.74121H3.9607C3.4162 9.74121 2.9707 10.1867 2.9707 10.7312V16.8296C2.9707 19.7996 4.4557 21.7796 7.9207 21.7796H15.8407C19.3057 21.7796 20.7907 19.7996 20.7907 16.8296V10.7312C20.7907 10.1867 20.3452 9.74121 19.8007 9.74121ZM9.1186 18.0275C9.0691 18.0671 9.0196 18.1166 8.9701 18.1463C8.9107 18.1859 8.8513 18.2156 8.7919 18.2354C8.7325 18.2651 8.6731 18.2849 8.6137 18.2948C8.5444 18.3047 8.485 18.3146 8.4157 18.3146C8.287 18.3146 8.1583 18.2849 8.0395 18.2354C7.9108 18.1859 7.8118 18.1166 7.7128 18.0275C7.5346 17.8394 7.4257 17.582 7.4257 17.3246C7.4257 17.0672 7.5346 16.8098 7.7128 16.6217C7.8118 16.5326 7.9108 16.4633 8.0395 16.4138C8.2177 16.3346 8.4157 16.3148 8.6137 16.3544C8.6731 16.3643 8.7325 16.3841 8.7919 16.4138C8.8513 16.4336 8.9107 16.4633 8.9701 16.5029C9.0196 16.5425 9.0691 16.5821 9.1186 16.6217C9.2968 16.8098 9.4057 17.0672 9.4057 17.3246C9.4057 17.582 9.2968 17.8394 9.1186 18.0275ZM9.1186 14.5625C8.9305 14.7407 8.6731 14.8496 8.4157 14.8496C8.1583 14.8496 7.9009 14.7407 7.7128 14.5625C7.5346 14.3744 7.4257 14.117 7.4257 13.8596C7.4257 13.6022 7.5346 13.3448 7.7128 13.1567C7.99 12.8795 8.4256 12.7904 8.7919 12.9488C8.9206 12.9983 9.0295 13.0676 9.1186 13.1567C9.2968 13.3448 9.4057 13.6022 9.4057 13.8596C9.4057 14.117 9.2968 14.3744 9.1186 14.5625ZM12.5836 18.0275C12.3955 18.2057 12.1381 18.3146 11.8807 18.3146C11.6233 18.3146 11.3659 18.2057 11.1778 18.0275C10.9996 17.8394 10.8907 17.582 10.8907 17.3246C10.8907 17.0672 10.9996 16.8098 11.1778 16.6217C11.5441 16.2554 12.2173 16.2554 12.5836 16.6217C12.7618 16.8098 12.8707 17.0672 12.8707 17.3246C12.8707 17.582 12.7618 17.8394 12.5836 18.0275ZM12.5836 14.5625C12.5341 14.6021 12.4846 14.6417 12.4351 14.6813C12.3757 14.7209 12.3163 14.7506 12.2569 14.7704C12.1975 14.8001 12.1381 14.8199 12.0787 14.8298C12.0094 14.8397 11.95 14.8496 11.8807 14.8496C11.6233 14.8496 11.3659 14.7407 11.1778 14.5625C10.9996 14.3744 10.8907 14.117 10.8907 13.8596C10.8907 13.6022 10.9996 13.3448 11.1778 13.1567C11.2669 13.0676 11.3758 12.9983 11.5045 12.9488C11.8708 12.7904 12.3064 12.8795 12.5836 13.1567C12.7618 13.3448 12.8707 13.6022 12.8707 13.8596C12.8707 14.117 12.7618 14.3744 12.5836 14.5625ZM16.0486 18.0275C15.8605 18.2057 15.6031 18.3146 15.3457 18.3146C15.0883 18.3146 14.8309 18.2057 14.6428 18.0275C14.4646 17.8394 14.3557 17.582 14.3557 17.3246C14.3557 17.0672 14.4646 16.8098 14.6428 16.6217C15.0091 16.2554 15.6823 16.2554 16.0486 16.6217C16.2268 16.8098 16.3357 17.0672 16.3357 17.3246C16.3357 17.582 16.2268 17.8394 16.0486 18.0275ZM16.0486 14.5625C15.9991 14.6021 15.9496 14.6417 15.9001 14.6813C15.8407 14.7209 15.7813 14.7506 15.7219 14.7704C15.6625 14.8001 15.6031 14.8199 15.5437 14.8298C15.4744 14.8397 15.4051 14.8496 15.3457 14.8496C15.0883 14.8496 14.8309 14.7407 14.6428 14.5625C14.4646 14.3744 14.3557 14.117 14.3557 13.8596C14.3557 13.6022 14.4646 13.3448 14.6428 13.1567C14.7418 13.0676 14.8408 12.9983 14.9695 12.9488C15.1477 12.8696 15.3457 12.8498 15.5437 12.8894C15.6031 12.8993 15.6625 12.9191 15.7219 12.9488C15.7813 12.9686 15.8407 12.9983 15.9001 13.0379C15.9496 13.0775 15.9991 13.1171 16.0486 13.1567C16.2268 13.3448 16.3357 13.6022 16.3357 13.8596C16.3357 14.117 16.2268 14.3744 16.0486 14.5625Z" fill="black" fill-opacity="0.7"/>
</svg>
