<svg width="24" height="24" viewBox="0 0 24 24" fill="none" xmlns="http://www.w3.org/2000/svg">
<path d="M16.6325 8.91016H12.623V15.0977C12.623 15.5036 12.2864 15.8402 11.8805 15.8402C11.4746 15.8402 11.138 15.5036 11.138 15.0977V8.91016H7.12847C3.96047 8.91016 1.98047 10.8902 1.98047 14.0582V16.6223C1.98047 19.8002 3.96047 21.7802 7.12847 21.7802H16.6226C19.7906 21.7802 21.7706 19.8002 21.7706 16.6322V14.0582C21.7805 10.8902 19.8005 8.91016 16.6325 8.91016Z" fill="black" fill-opacity="0.7"/>
<path d="M12.6232 4.51435L14.6725 6.56365C14.821 6.71215 15.0091 6.78145 15.1972 6.78145C15.3853 6.78145 15.5734 6.71215 15.7219 6.56365C16.009 6.27655 16.009 5.80135 15.7219 5.51425L12.4054 2.19775C12.1183 1.91065 11.6431 1.91065 11.356 2.19775L8.03954 5.51425C7.75244 5.80135 7.75244 6.27655 8.03954 6.56365C8.32664 6.85075 8.80184 6.85075 9.08894 6.56365L11.1382 4.51435V8.90995H12.6232V4.51435Z" fill="black" fill-opacity="0.7"/>
</svg>
