<svg width="24" height="24" viewBox="0 0 24 24" fill="none" xmlns="http://www.w3.org/2000/svg">
<path d="M16.0286 1.98047H7.73237C4.12877 1.98047 1.98047 4.12877 1.98047 7.73237V16.0187C1.98047 19.6322 4.12877 21.7805 7.73237 21.7805H16.0187C19.6223 21.7805 21.7706 19.6322 21.7706 16.0286V7.73237C21.7805 4.12877 19.6322 1.98047 16.0286 1.98047ZM7.55417 17.969C7.55417 18.3749 7.21757 18.7115 6.81167 18.7115C6.40577 18.7115 6.06917 18.3749 6.06917 17.969V15.9197C6.06917 15.5138 6.40577 15.1772 6.81167 15.1772C7.21757 15.1772 7.55417 15.5138 7.55417 15.9197V17.969ZM12.623 17.969C12.623 18.3749 12.2864 18.7115 11.8805 18.7115C11.4746 18.7115 11.138 18.3749 11.138 17.969V13.8605C11.138 13.4546 11.4746 13.118 11.8805 13.118C12.2864 13.118 12.623 13.4546 12.623 13.8605V17.969ZM17.6918 17.969C17.6918 18.3749 17.3552 18.7115 16.9493 18.7115C16.5434 18.7115 16.2068 18.3749 16.2068 17.969V11.8112C16.2068 11.4053 16.5434 11.0687 16.9493 11.0687C17.3552 11.0687 17.6918 11.4053 17.6918 11.8112V17.969ZM17.6918 8.68277C17.6918 9.08867 17.3552 9.42527 16.9493 9.42527C16.5434 9.42527 16.2068 9.08867 16.2068 8.68277V7.72247C13.6823 10.3163 10.5242 12.1478 6.98987 13.0289C6.93047 13.0487 6.87107 13.0487 6.81167 13.0487C6.47507 13.0487 6.17807 12.821 6.08897 12.4844C5.98997 12.0884 6.22757 11.6825 6.63347 11.5835C9.96977 10.7519 12.9398 8.99957 15.296 6.52457H14.0585C13.6526 6.52457 13.316 6.18797 13.316 5.78207C13.316 5.37617 13.6526 5.03957 14.0585 5.03957H16.9592C16.9988 5.03957 17.0285 5.05937 17.0681 5.05937C17.1176 5.06927 17.1671 5.06927 17.2166 5.08907C17.2661 5.10887 17.3057 5.13857 17.3552 5.16827C17.3849 5.18807 17.4146 5.19797 17.4443 5.21777C17.4542 5.22767 17.4542 5.23757 17.4641 5.23757C17.5037 5.27717 17.5334 5.31677 17.5631 5.35637C17.5928 5.39597 17.6225 5.42567 17.6324 5.46527C17.6522 5.50487 17.6522 5.54447 17.6621 5.59397C17.672 5.64347 17.6918 5.69297 17.6918 5.75237C17.6918 5.76227 17.7017 5.77217 17.7017 5.78207V8.68277H17.6918Z" fill="black" fill-opacity="0.7"/>
</svg>
