<svg width="24" height="24" viewBox="0 0 24 24" fill="none" xmlns="http://www.w3.org/2000/svg">
<path d="M18.9281 14.7904L19.2449 15.4339C19.4033 15.7507 19.8092 16.0477 20.1458 16.1071L20.5715 16.1764C21.8684 16.3942 22.1654 17.3446 21.2447 18.2752L20.8487 18.6712C20.5814 18.9385 20.4428 19.4533 20.522 19.8295L20.5715 20.0671C20.9279 21.6313 20.0963 22.2352 18.74 21.4135L18.4529 21.2353C18.1064 21.0274 17.5322 21.0274 17.1857 21.2353L16.8986 21.4135C15.5324 22.2352 14.7107 21.6313 15.0671 20.0671L15.1166 19.8295C15.1958 19.4632 15.0572 18.9385 14.7899 18.6712L14.3939 18.2752C13.4732 17.3347 13.7702 16.3942 15.0671 16.1764L15.4928 16.1071C15.8393 16.0477 16.2353 15.7507 16.3937 15.4339L16.7105 14.7904C17.3243 13.5529 18.3143 13.5529 18.9281 14.7904Z" fill="black" fill-opacity="0.7"/>
<path d="M16.0286 1.98047H7.73237C4.12877 1.98047 1.98047 4.12877 1.98047 7.73237V16.0286C1.98047 19.6322 4.12877 21.7805 7.73237 21.7805H12.9596C13.3061 21.7805 13.5536 21.4241 13.514 21.0776C13.4744 20.7014 13.4942 20.2559 13.613 19.7411C13.6328 19.6718 13.613 19.5926 13.5536 19.5332L13.3358 19.3154C12.4943 18.464 12.1874 17.4344 12.4844 16.4939C12.7913 15.5633 13.6427 14.9099 14.8208 14.7119L15.1178 14.6624L15.3851 14.1278C15.9296 13.019 16.8206 12.3755 17.8205 12.3755C18.8204 12.3755 19.7114 13.019 20.2559 14.1278L20.4044 14.4347C20.4737 14.5832 20.6123 14.6822 20.7707 14.7119C20.8598 14.7317 20.9489 14.7515 21.038 14.7713C21.3845 14.8604 21.7805 14.5832 21.7805 14.2169V7.73237C21.7805 4.12877 19.6322 1.98047 16.0286 1.98047ZM16.0979 8.87087L13.811 11.8211C13.5239 12.1874 13.118 12.425 12.6527 12.4745C12.1973 12.5339 11.732 12.4052 11.3756 12.1181L9.56387 10.7123C9.49457 10.6529 9.41537 10.6529 9.37577 10.6628C9.33617 10.6628 9.26687 10.6826 9.20747 10.7618L6.85127 13.8209C6.70277 14.009 6.48497 14.108 6.25727 14.108C6.09887 14.108 5.94047 14.0585 5.80187 13.9496C5.47517 13.7021 5.41577 13.2368 5.66327 12.9101L8.01947 9.85097C8.30657 9.48467 8.71247 9.24707 9.17777 9.18767C9.64307 9.12827 10.0985 9.25697 10.4648 9.54407L12.2765 10.9697C12.3458 11.0291 12.4151 11.0192 12.4646 11.0192C12.5042 11.0192 12.5735 10.9994 12.6329 10.9202L14.9198 7.96997C15.1673 7.64327 15.6326 7.58387 15.9593 7.84127C16.2959 8.08877 16.3454 8.55407 16.0979 8.87087Z" fill="black" fill-opacity="0.7"/>
</svg>
