<svg width="24" height="24" viewBox="0 0 24 24" fill="none" xmlns="http://www.w3.org/2000/svg">
<path d="M19.8995 9.12747C18.1076 9.12747 17.375 7.86027 18.266 6.30597C18.7808 5.40507 18.4739 4.25667 17.573 3.74187L15.8603 2.76177C15.0782 2.29647 14.0684 2.57367 13.6031 3.35577L13.4942 3.54387C12.6032 5.09817 11.138 5.09817 10.2371 3.54387L10.1282 3.35577C9.68267 2.57367 8.67287 2.29647 7.89077 2.76177L6.17807 3.74187C5.27717 4.25667 4.97027 5.41497 5.48507 6.31587C6.38597 7.86027 5.65337 9.12747 3.86147 9.12747C2.83187 9.12747 1.98047 9.96897 1.98047 11.0085V12.7509C1.98047 13.7805 2.82197 14.6319 3.86147 14.6319C5.65337 14.6319 6.38597 15.8991 5.48507 17.4534C4.97027 18.3543 5.27717 19.5027 6.17807 20.0175L7.89077 20.9976C8.67287 21.4629 9.68267 21.1857 10.148 20.4036L10.2569 20.2155C11.1479 18.6612 12.6131 18.6612 13.514 20.2155L13.6229 20.4036C14.0882 21.1857 15.098 21.4629 15.8801 20.9976L17.5928 20.0175C18.4937 19.5027 18.8006 18.3444 18.2858 17.4534C17.3849 15.8991 18.1175 14.6319 19.9094 14.6319C20.939 14.6319 21.7904 13.7904 21.7904 12.7509V11.0085C21.7805 9.97887 20.939 9.12747 19.8995 9.12747ZM11.8805 15.0972C10.1084 15.0972 8.66297 13.6518 8.66297 11.8797C8.66297 10.1076 10.1084 8.66217 11.8805 8.66217C13.6526 8.66217 15.098 10.1076 15.098 11.8797C15.098 13.6518 13.6526 15.0972 11.8805 15.0972Z" fill="black" fill-opacity="0.7"/>
</svg>
