<svg width="24" height="24" viewBox="0 0 24 24" fill="none" xmlns="http://www.w3.org/2000/svg">
<path d="M6.60377 13.8604H3.96047C2.87147 13.8604 1.98047 14.7514 1.98047 15.8404V20.7904C1.98047 21.3349 2.42597 21.7804 2.97047 21.7804H6.60377C7.14827 21.7804 7.59377 21.3349 7.59377 20.7904V14.8504C7.59377 14.3059 7.14827 13.8604 6.60377 13.8604Z" fill="black" fill-opacity="0.7"/>
<path d="M13.1975 9.90039H10.5542C9.46522 9.90039 8.57422 10.7914 8.57422 11.8804V20.7904C8.57422 21.3349 9.01972 21.7804 9.56422 21.7804H14.1875C14.732 21.7804 15.1775 21.3349 15.1775 20.7904V11.8804C15.1775 10.7914 14.2964 9.90039 13.1975 9.90039Z" fill="black" fill-opacity="0.7"/>
<path d="M19.7993 16.8301H17.156C16.6115 16.8301 16.166 17.2756 16.166 17.8201V20.7901C16.166 21.3346 16.6115 21.7801 17.156 21.7801H20.7893C21.3338 21.7801 21.7793 21.3346 21.7793 20.7901V18.8101C21.7793 17.7211 20.8883 16.8301 19.7993 16.8301Z" fill="black" fill-opacity="0.7"/>
<path d="M14.8597 4.80122C15.1666 4.49432 15.2854 4.12802 15.1864 3.81122C15.0874 3.49442 14.7805 3.26672 14.3449 3.19742L13.3945 3.03902C13.3549 3.03902 13.2658 2.96972 13.246 2.93012L12.7213 1.88072C12.3253 1.07882 11.4244 1.07882 11.0284 1.88072L10.5037 2.93012C10.4938 2.96972 10.4047 3.03902 10.3651 3.03902L9.41467 3.19742C8.97907 3.26672 8.68207 3.49442 8.57317 3.81122C8.47417 4.12802 8.59297 4.49432 8.89987 4.80122L9.63247 5.54372C9.67207 5.57342 9.70177 5.69222 9.69187 5.73182L9.48397 6.64262C9.32557 7.32572 9.58297 7.63262 9.75127 7.75142C9.91957 7.87022 10.2859 8.02862 10.8898 7.67222L11.7808 7.14752C11.8204 7.11782 11.9491 7.11782 11.9887 7.14752L12.8698 7.67222C13.147 7.84052 13.3747 7.89002 13.5529 7.89002C13.7608 7.89002 13.9093 7.81082 13.9984 7.75142C14.1667 7.63262 14.4241 7.32572 14.2657 6.64262L14.0578 5.73182C14.0479 5.68232 14.0776 5.57342 14.1172 5.54372L14.8597 4.80122Z" fill="black" fill-opacity="0.7"/>
</svg>
